<mxfile host="app.diagrams.net" modified="2021-08-30T16:41:49.847Z" agent="5.0 (Windows NT 10.0; Win64; x64) AppleWebKit/537.36 (KHTML, like Gecko) Chrome/92.0.4515.159 Safari/537.36" etag="LgqjR1XfxGP6a97f_uwn" version="14.9.8" type="github">
  <diagram id="gmLFPseF1WjXxY96tJIX" name="Page-1">
    <mxGraphModel dx="1038" dy="547" grid="1" gridSize="10" guides="1" tooltips="1" connect="1" arrows="1" fold="1" page="1" pageScale="1" pageWidth="1654" pageHeight="1169" math="0" shadow="0">
      <root>
        <mxCell id="0" />
        <mxCell id="1" parent="0" />
        <mxCell id="zsRRdfZjk0Dsm9g0y4IN-3" value="SART" style="html=1;dashed=0;whitespace=wrap;shape=mxgraph.dfd.start" parent="1" vertex="1">
          <mxGeometry x="740" y="40" width="200" height="50" as="geometry" />
        </mxCell>
        <mxCell id="QKt1bh4NS38TN98ipoRj-1" value="" style="ellipse;whiteSpace=wrap;html=1;" vertex="1" parent="1">
          <mxGeometry x="470" y="90" width="200" height="80" as="geometry" />
        </mxCell>
      </root>
    </mxGraphModel>
  </diagram>
</mxfile>
